<svg xmlns="http://www.w3.org/2000/svg" viewBox="0 0 512 512" style="height: 512px; width: 512px;"><path d="M0 0h512v512H0z" fill="#000" fill-opacity="1"></path><g class="" transform="translate(0,0)" style=""><g><path d="M247.196 26L142.816 130.358L247.196 234.749L247.196 26Z" class="" fill="#000000" fill-opacity="1"></path><path d="M264.804 26L264.804 234.75L369.194 130.358L264.805 26Z" class="" fill="#000000" fill-opacity="1"></path><path d="M381.642 142.805L277.25 247.196L486 247.196L381.642 142.806Z" class="" fill="#fff" fill-opacity="1"></path><path d="M130.358 142.816L26 247.196L234.75 247.196L130.358 142.816Z" class="" fill="#fff" fill-opacity="1"></path><path d="M26 264.804L130.358 369.194L234.749 264.804L26 264.804Z" class="" fill="#fff" fill-opacity="1"></path><path d="M277.25 264.804L381.642 369.184L486 264.804L277.25 264.804Z" class="" fill="#fff" fill-opacity="1"></path><path d="M247.196 277.251L142.782 381.64L247.196 486L247.196 277.25Z" class="selected" fill="#fff" fill-opacity="1"></path><path d="M264.804 277.251L264.804 486L369.162 381.642L264.804 277.25Z" class="" fill="#fff" fill-opacity="1"></path></g></g></svg>